# MagicaVoxel @ Ephtracy

# group
o 

# material
mtllib chainsaw_0.mtl
usemtl palette

# normals
vn -1 0 0
vn 1 0 0
vn 0 0 1
vn 0 0 -1
vn 0 -1 0
vn 0 1 0

# texcoords
vt 0.232422 0.5
vt 0.958984 0.5
vt 0.970703 0.5
vt 0.994141 0.5

# verts
v -0.5 0.6 0.2
v -0.5 0.6 -0.2
v -0.5 0.7 0.2
v -0.5 0.7 -0.2
v -0.4 0.2 0.2
v -0.4 0.2 -0.2
v -0.4 0.3 0.2
v -0.4 0.3 0.1
v -0.4 0.3 -0.1
v -0.4 0.3 -0.2
v -0.4 0.4 0.2
v -0.4 0.4 0.1
v -0.4 0.4 -0.1
v -0.4 0.4 -0.2
v -0.4 0.6 0.2
v -0.4 0.6 -0.2
v -0.4 0.7 0.2
v -0.4 0.7 -0.2
v -0.4 0.8 0.2
v -0.4 0.8 -0.2
v -0.3 0.8 0.2
v -0.3 0.8 -0.2
v -0.3 0.9 0.2
v -0.3 0.9 -0.2
v -0.2 0 0.2
v -0.2 0 -0.2
v -0.2 0.2 0.2
v -0.2 0.2 -0.2
v -0.2 1 0.1
v -0.2 1 -0.1
v -0.2 1.1 0.1
v -0.2 1.1 -0.1
v -0.2 1.2 0.1
v -0.2 1.2 -0.1
v -0.2 1.3 0.1
v -0.2 1.3 -0.1
v -0.2 1.4 0.1
v -0.2 1.4 -0.1
v -0.2 1.5 0.1
v -0.2 1.5 -0.1
v -0.2 1.6 0.1
v -0.2 1.6 -0.1
v -0.2 1.7 0.1
v -0.2 1.7 -0.1
v -0.2 1.8 0.1
v -0.2 1.8 -0.1
v -0.2 1.9 0.1
v -0.2 1.9 -0.1
v -0.1 0.9 0.1
v -0.1 0.9 -0.1
v -0.1 1 0.1
v -0.1 1 -0.1
v -0.1 1.1 0.1
v -0.1 1.1 -0.1
v -0.1 1.2 0.1
v -0.1 1.2 -0.1
v -0.1 1.3 0.1
v -0.1 1.3 -0.1
v -0.1 1.4 0.1
v -0.1 1.4 -0.1
v -0.1 1.5 0.1
v -0.1 1.5 -0.1
v -0.1 1.6 0.1
v -0.1 1.6 -0.1
v -0.1 1.7 0.1
v -0.1 1.7 -0.1
v -0.1 1.8 0.1
v -0.1 1.8 -0.1
v 0 1.9 0.1
v 0 1.9 -0.1
v 0 2 0.1
v 0 2 -0.1
v 0.1 0.1 0.2
v 0.1 0.1 -0.2
v 0.1 0.3 0.2
v 0.1 0.3 -0.2
v -0.1 0.1 0.2
v -0.1 0.1 -0.2
v -0.1 0.2 0.2
v -0.1 0.2 -0.2
v -0.1 0.3 0.2
v -0.1 0.3 -0.2
v 0.1 1.9 0.1
v 0.1 1.9 -0.1
v 0.1 2 0.1
v 0.1 2 -0.1
v 0.2 0 0.2
v 0.2 0 -0.2
v 0.2 0.9 0.2
v 0.2 0.9 0.1
v 0.2 0.9 -0.1
v 0.2 0.9 -0.2
v 0.2 1 0.1
v 0.2 1 -0.1
v 0.2 1.1 0.1
v 0.2 1.1 -0.1
v 0.2 1.2 0.1
v 0.2 1.2 -0.1
v 0.2 1.3 0.1
v 0.2 1.3 -0.1
v 0.2 1.4 0.1
v 0.2 1.4 -0.1
v 0.2 1.5 0.1
v 0.2 1.5 -0.1
v 0.2 1.6 0.1
v 0.2 1.6 -0.1
v 0.2 1.7 0.1
v 0.2 1.7 -0.1
v 0.2 1.8 0.1
v 0.2 1.8 -0.1
v 0.2 1.9 0.1
v 0.2 1.9 -0.1
v 0.3 0.9 0.1
v 0.3 0.9 -0.1
v 0.3 1 0.1
v 0.3 1 -0.1
v 0.3 1.1 0.1
v 0.3 1.1 -0.1
v 0.3 1.2 0.1
v 0.3 1.2 -0.1
v 0.3 1.3 0.1
v 0.3 1.3 -0.1
v 0.3 1.4 0.1
v 0.3 1.4 -0.1
v 0.3 1.5 0.1
v 0.3 1.5 -0.1
v 0.3 1.6 0.1
v 0.3 1.6 -0.1
v 0.3 1.7 0.1
v 0.3 1.7 -0.1
v 0.3 1.8 0.1
v 0.3 1.8 -0.1
v -0.5 0.6 0.2
v -0.5 0.7 0.2
v -0.4 0.2 0.2
v -0.4 0.3 0.2
v -0.4 0.4 0.2
v -0.4 0.6 0.2
v -0.4 0.7 0.2
v -0.4 0.8 0.2
v -0.3 0.3 0.2
v -0.3 0.4 0.2
v -0.3 0.7 0.2
v -0.3 0.8 0.2
v -0.3 0.9 0.2
v -0.2 0 0.2
v -0.2 0.2 0.2
v -0.2 0.8 0.2
v -0.2 0.9 0.2
v -0.1 0 0.2
v -0.1 0.1 0.2
v -0.1 0.2 0.2
v -0.1 0.3 0.2
v -0.1 0.4 0.2
v -0.1 0.7 0.2
v 0.1 0.1 0.2
v 0.1 0.3 0.2
v 0.1 0.4 0.2
v 0.1 0.7 0.2
v 0.2 0 0.2
v 0.2 0.9 0.2
v -0.2 1 0.1
v -0.2 1.1 0.1
v -0.2 1.2 0.1
v -0.2 1.3 0.1
v -0.2 1.4 0.1
v -0.2 1.5 0.1
v -0.2 1.6 0.1
v -0.2 1.7 0.1
v -0.2 1.8 0.1
v -0.2 1.9 0.1
v -0.1 0.9 0.1
v -0.1 1 0.1
v -0.1 1.1 0.1
v -0.1 1.2 0.1
v -0.1 1.3 0.1
v -0.1 1.4 0.1
v -0.1 1.5 0.1
v -0.1 1.6 0.1
v -0.1 1.7 0.1
v -0.1 1.8 0.1
v 0 1.9 0.1
v 0 2 0.1
v 0.1 1.9 0.1
v 0.1 2 0.1
v 0.2 0.9 0.1
v 0.2 1 0.1
v 0.2 1.1 0.1
v 0.2 1.2 0.1
v 0.2 1.3 0.1
v 0.2 1.4 0.1
v 0.2 1.5 0.1
v 0.2 1.6 0.1
v 0.2 1.7 0.1
v 0.2 1.8 0.1
v 0.2 1.9 0.1
v 0.3 0.9 0.1
v 0.3 1 0.1
v 0.3 1.1 0.1
v 0.3 1.2 0.1
v 0.3 1.3 0.1
v 0.3 1.4 0.1
v 0.3 1.5 0.1
v 0.3 1.6 0.1
v 0.3 1.7 0.1
v 0.3 1.8 0.1
v -0.2 1 -0.1
v -0.2 1.1 -0.1
v -0.2 1.2 -0.1
v -0.2 1.3 -0.1
v -0.2 1.4 -0.1
v -0.2 1.5 -0.1
v -0.2 1.6 -0.1
v -0.2 1.7 -0.1
v -0.2 1.8 -0.1
v -0.2 1.9 -0.1
v -0.1 0.9 -0.1
v -0.1 1 -0.1
v -0.1 1.1 -0.1
v -0.1 1.2 -0.1
v -0.1 1.3 -0.1
v -0.1 1.4 -0.1
v -0.1 1.5 -0.1
v -0.1 1.6 -0.1
v -0.1 1.7 -0.1
v -0.1 1.8 -0.1
v 0 1.9 -0.1
v 0 2 -0.1
v 0.1 1.9 -0.1
v 0.1 2 -0.1
v 0.2 0.9 -0.1
v 0.2 1 -0.1
v 0.2 1.1 -0.1
v 0.2 1.2 -0.1
v 0.2 1.3 -0.1
v 0.2 1.4 -0.1
v 0.2 1.5 -0.1
v 0.2 1.6 -0.1
v 0.2 1.7 -0.1
v 0.2 1.8 -0.1
v 0.2 1.9 -0.1
v 0.3 0.9 -0.1
v 0.3 1 -0.1
v 0.3 1.1 -0.1
v 0.3 1.2 -0.1
v 0.3 1.3 -0.1
v 0.3 1.4 -0.1
v 0.3 1.5 -0.1
v 0.3 1.6 -0.1
v 0.3 1.7 -0.1
v 0.3 1.8 -0.1
v -0.5 0.6 -0.2
v -0.5 0.7 -0.2
v -0.4 0.2 -0.2
v -0.4 0.3 -0.2
v -0.4 0.4 -0.2
v -0.4 0.6 -0.2
v -0.4 0.7 -0.2
v -0.4 0.8 -0.2
v -0.3 0.3 -0.2
v -0.3 0.4 -0.2
v -0.3 0.7 -0.2
v -0.3 0.8 -0.2
v -0.3 0.9 -0.2
v -0.2 0 -0.2
v -0.2 0.2 -0.2
v -0.2 0.8 -0.2
v -0.2 0.9 -0.2
v -0.1 0 -0.2
v -0.1 0.1 -0.2
v -0.1 0.2 -0.2
v -0.1 0.3 -0.2
v -0.1 0.4 -0.2
v -0.1 0.7 -0.2
v 0.1 0.1 -0.2
v 0.1 0.3 -0.2
v 0.1 0.4 -0.2
v 0.1 0.7 -0.2
v 0.2 0 -0.2
v 0.2 0.9 -0.2
v -0.2 0 0.2
v -0.1 0 0.2
v 0.2 0 0.2
v -0.2 0 -0.2
v -0.1 0 -0.2
v 0.2 0 -0.2
v -0.4 0.2 0.2
v -0.2 0.2 0.2
v -0.4 0.2 -0.2
v -0.2 0.2 -0.2
v -0.1 0.3 0.2
v 0.1 0.3 0.2
v -0.1 0.3 -0.2
v 0.1 0.3 -0.2
v -0.5 0.6 0.2
v -0.4 0.6 0.2
v -0.5 0.6 -0.2
v -0.4 0.6 -0.2
v 0.2 0.9 0.1
v 0.3 0.9 0.1
v 0.2 0.9 -0.1
v 0.3 0.9 -0.1
v -0.2 1 0.1
v -0.1 1 0.1
v -0.2 1 -0.1
v -0.1 1 -0.1
v 0.2 1.1 0.1
v 0.3 1.1 0.1
v 0.2 1.1 -0.1
v 0.3 1.1 -0.1
v -0.2 1.2 0.1
v -0.1 1.2 0.1
v -0.2 1.2 -0.1
v -0.1 1.2 -0.1
v 0.2 1.3 0.1
v 0.3 1.3 0.1
v 0.2 1.3 -0.1
v 0.3 1.3 -0.1
v -0.2 1.4 0.1
v -0.1 1.4 0.1
v -0.2 1.4 -0.1
v -0.1 1.4 -0.1
v 0.2 1.5 0.1
v 0.3 1.5 0.1
v 0.2 1.5 -0.1
v 0.3 1.5 -0.1
v -0.2 1.6 0.1
v -0.1 1.6 0.1
v -0.2 1.6 -0.1
v -0.1 1.6 -0.1
v 0.2 1.7 0.1
v 0.3 1.7 0.1
v 0.2 1.7 -0.1
v 0.3 1.7 -0.1
v -0.2 1.8 0.1
v -0.1 1.8 0.1
v -0.2 1.8 -0.1
v -0.1 1.8 -0.1
v -0.1 0.1 0.2
v 0.1 0.1 0.2
v -0.1 0.1 -0.2
v 0.1 0.1 -0.2
v -0.5 0.7 0.2
v -0.4 0.7 0.2
v -0.5 0.7 -0.2
v -0.4 0.7 -0.2
v -0.4 0.8 0.2
v -0.3 0.8 0.2
v -0.4 0.8 -0.2
v -0.3 0.8 -0.2
v -0.3 0.9 0.2
v -0.2 0.9 0.2
v 0.2 0.9 0.2
v -0.1 0.9 0.1
v 0.2 0.9 0.1
v -0.1 0.9 -0.1
v 0.2 0.9 -0.1
v -0.3 0.9 -0.2
v -0.2 0.9 -0.2
v 0.2 0.9 -0.2
v 0.2 1 0.1
v 0.3 1 0.1
v 0.2 1 -0.1
v 0.3 1 -0.1
v -0.2 1.1 0.1
v -0.1 1.1 0.1
v -0.2 1.1 -0.1
v -0.1 1.1 -0.1
v 0.2 1.2 0.1
v 0.3 1.2 0.1
v 0.2 1.2 -0.1
v 0.3 1.2 -0.1
v -0.2 1.3 0.1
v -0.1 1.3 0.1
v -0.2 1.3 -0.1
v -0.1 1.3 -0.1
v 0.2 1.4 0.1
v 0.3 1.4 0.1
v 0.2 1.4 -0.1
v 0.3 1.4 -0.1
v -0.2 1.5 0.1
v -0.1 1.5 0.1
v -0.2 1.5 -0.1
v -0.1 1.5 -0.1
v 0.2 1.6 0.1
v 0.3 1.6 0.1
v 0.2 1.6 -0.1
v 0.3 1.6 -0.1
v -0.2 1.7 0.1
v -0.1 1.7 0.1
v -0.2 1.7 -0.1
v -0.1 1.7 -0.1
v 0.2 1.8 0.1
v 0.3 1.8 0.1
v 0.2 1.8 -0.1
v 0.3 1.8 -0.1
v -0.2 1.9 0.1
v 0 1.9 0.1
v 0.1 1.9 0.1
v 0.2 1.9 0.1
v -0.2 1.9 -0.1
v 0 1.9 -0.1
v 0.1 1.9 -0.1
v 0.2 1.9 -0.1
v 0 2 0.1
v 0.1 2 0.1
v 0 2 -0.1
v 0.1 2 -0.1

# faces
f 3/4/1 2/4/1 1/4/1
f 4/4/1 2/4/1 3/4/1
f 7/1/1 6/1/1 5/1/1
f 8/1/1 6/1/1 7/1/1
f 9/1/1 6/1/1 8/1/1
f 10/1/1 6/1/1 9/1/1
f 11/4/1 8/4/1 7/4/1
f 12/1/1 9/1/1 8/1/1
f 12/4/1 8/4/1 11/4/1
f 13/4/1 10/4/1 9/4/1
f 13/1/1 9/1/1 12/1/1
f 14/4/1 10/4/1 13/4/1
f 15/1/1 12/1/1 11/1/1
f 15/1/1 13/1/1 12/1/1
f 15/1/1 14/1/1 13/1/1
f 16/1/1 14/1/1 15/1/1
f 19/4/1 18/4/1 17/4/1
f 20/4/1 18/4/1 19/4/1
f 23/4/1 22/4/1 21/4/1
f 24/4/1 22/4/1 23/4/1
f 27/4/1 26/4/1 25/4/1
f 28/4/1 26/4/1 27/4/1
f 31/3/1 30/3/1 29/3/1
f 32/3/1 30/3/1 31/3/1
f 35/3/1 34/3/1 33/3/1
f 36/3/1 34/3/1 35/3/1
f 39/3/1 38/3/1 37/3/1
f 40/3/1 38/3/1 39/3/1
f 43/3/1 42/3/1 41/3/1
f 44/3/1 42/3/1 43/3/1
f 47/3/1 46/3/1 45/3/1
f 48/3/1 46/3/1 47/3/1
f 51/3/1 50/3/1 49/3/1
f 52/3/1 50/3/1 51/3/1
f 55/3/1 54/3/1 53/3/1
f 56/3/1 54/3/1 55/3/1
f 59/3/1 58/3/1 57/3/1
f 60/3/1 58/3/1 59/3/1
f 63/3/1 62/3/1 61/3/1
f 64/3/1 62/3/1 63/3/1
f 67/3/1 66/3/1 65/3/1
f 68/3/1 66/3/1 67/3/1
f 71/3/1 70/3/1 69/3/1
f 72/3/1 70/3/1 71/3/1
f 75/1/1 74/1/1 73/1/1
f 76/1/1 74/1/1 75/1/1
f 77/4/2 78/4/2 79/4/2
f 79/4/2 78/4/2 80/4/2
f 79/1/2 80/1/2 81/1/2
f 81/1/2 80/1/2 82/1/2
f 83/3/2 84/3/2 85/3/2
f 85/3/2 84/3/2 86/3/2
f 87/1/2 88/1/2 89/1/2
f 89/1/2 88/1/2 90/1/2
f 90/1/2 88/1/2 91/1/2
f 91/1/2 88/1/2 92/1/2
f 93/3/2 94/3/2 95/3/2
f 95/3/2 94/3/2 96/3/2
f 97/3/2 98/3/2 99/3/2
f 99/3/2 98/3/2 100/3/2
f 101/3/2 102/3/2 103/3/2
f 103/3/2 102/3/2 104/3/2
f 105/3/2 106/3/2 107/3/2
f 107/3/2 106/3/2 108/3/2
f 109/3/2 110/3/2 111/3/2
f 111/3/2 110/3/2 112/3/2
f 113/3/2 114/3/2 115/3/2
f 115/3/2 114/3/2 116/3/2
f 117/3/2 118/3/2 119/3/2
f 119/3/2 118/3/2 120/3/2
f 121/3/2 122/3/2 123/3/2
f 123/3/2 122/3/2 124/3/2
f 125/3/2 126/3/2 127/3/2
f 127/3/2 126/3/2 128/3/2
f 129/3/2 130/3/2 131/3/2
f 131/3/2 130/3/2 132/3/2
f 138/4/3 134/4/3 133/4/3
f 139/4/3 134/4/3 138/4/3
f 141/4/3 137/4/3 136/4/3
f 141/1/3 136/1/3 135/1/3
f 142/1/3 139/1/3 138/1/3
f 142/4/3 137/4/3 141/4/3
f 142/1/3 138/1/3 137/1/3
f 143/4/3 140/4/3 139/4/3
f 143/1/3 139/1/3 142/1/3
f 144/4/3 140/4/3 143/4/3
f 147/1/3 142/1/3 141/1/3
f 147/1/3 141/1/3 135/1/3
f 147/1/3 144/1/3 143/1/3
f 147/1/3 143/1/3 142/1/3
f 148/4/3 145/4/3 144/4/3
f 148/1/3 144/1/3 147/1/3
f 149/4/3 145/4/3 148/4/3
f 150/4/3 147/4/3 146/4/3
f 151/4/3 147/4/3 150/4/3
f 152/1/3 148/1/3 147/1/3
f 152/4/3 147/4/3 151/4/3
f 152/1/3 149/1/3 148/1/3
f 153/1/3 149/1/3 152/1/3
f 154/1/3 149/1/3 153/1/3
f 155/1/3 149/1/3 154/1/3
f 156/1/3 151/1/3 150/1/3
f 157/1/3 154/1/3 153/1/3
f 158/2/3 155/2/3 154/2/3
f 158/1/3 154/1/3 157/1/3
f 159/1/3 149/1/3 155/1/3
f 159/2/3 155/2/3 158/2/3
f 160/1/3 158/1/3 157/1/3
f 160/1/3 157/1/3 156/1/3
f 160/1/3 159/1/3 158/1/3
f 160/1/3 156/1/3 150/1/3
f 161/1/3 149/1/3 159/1/3
f 161/1/3 159/1/3 160/1/3
f 173/3/3 163/3/3 162/3/3
f 174/3/3 163/3/3 173/3/3
f 175/3/3 165/3/3 164/3/3
f 176/3/3 165/3/3 175/3/3
f 177/3/3 167/3/3 166/3/3
f 178/3/3 167/3/3 177/3/3
f 179/3/3 169/3/3 168/3/3
f 180/3/3 169/3/3 179/3/3
f 181/3/3 171/3/3 170/3/3
f 182/3/3 180/3/3 179/3/3
f 182/3/3 181/3/3 180/3/3
f 182/3/3 171/3/3 181/3/3
f 182/3/3 174/3/3 173/3/3
f 182/3/3 179/3/3 178/3/3
f 182/3/3 176/3/3 175/3/3
f 182/3/3 177/3/3 176/3/3
f 182/3/3 178/3/3 177/3/3
f 182/3/3 175/3/3 174/3/3
f 182/3/3 173/3/3 172/3/3
f 184/3/3 182/3/3 172/3/3
f 184/3/3 183/3/3 182/3/3
f 185/3/3 183/3/3 184/3/3
f 186/3/3 184/3/3 172/3/3
f 187/3/3 184/3/3 186/3/3
f 188/3/3 184/3/3 187/3/3
f 189/3/3 184/3/3 188/3/3
f 190/3/3 184/3/3 189/3/3
f 191/3/3 184/3/3 190/3/3
f 192/3/3 184/3/3 191/3/3
f 193/3/3 184/3/3 192/3/3
f 194/3/3 184/3/3 193/3/3
f 195/3/3 184/3/3 194/3/3
f 196/3/3 184/3/3 195/3/3
f 197/3/3 187/3/3 186/3/3
f 198/3/3 187/3/3 197/3/3
f 199/3/3 189/3/3 188/3/3
f 200/3/3 189/3/3 199/3/3
f 201/3/3 191/3/3 190/3/3
f 202/3/3 191/3/3 201/3/3
f 203/3/3 193/3/3 192/3/3
f 204/3/3 193/3/3 203/3/3
f 205/3/3 195/3/3 194/3/3
f 206/3/3 195/3/3 205/3/3
f 207/3/4 208/3/4 218/3/4
f 218/3/4 208/3/4 219/3/4
f 209/3/4 210/3/4 220/3/4
f 220/3/4 210/3/4 221/3/4
f 211/3/4 212/3/4 222/3/4
f 222/3/4 212/3/4 223/3/4
f 213/3/4 214/3/4 224/3/4
f 224/3/4 214/3/4 225/3/4
f 215/3/4 216/3/4 226/3/4
f 224/3/4 225/3/4 227/3/4
f 225/3/4 226/3/4 227/3/4
f 226/3/4 216/3/4 227/3/4
f 218/3/4 219/3/4 227/3/4
f 223/3/4 224/3/4 227/3/4
f 220/3/4 221/3/4 227/3/4
f 221/3/4 222/3/4 227/3/4
f 222/3/4 223/3/4 227/3/4
f 219/3/4 220/3/4 227/3/4
f 217/3/4 218/3/4 227/3/4
f 217/3/4 227/3/4 229/3/4
f 227/3/4 228/3/4 229/3/4
f 229/3/4 228/3/4 230/3/4
f 217/3/4 229/3/4 231/3/4
f 231/3/4 229/3/4 232/3/4
f 232/3/4 229/3/4 233/3/4
f 233/3/4 229/3/4 234/3/4
f 234/3/4 229/3/4 235/3/4
f 235/3/4 229/3/4 236/3/4
f 236/3/4 229/3/4 237/3/4
f 237/3/4 229/3/4 238/3/4
f 238/3/4 229/3/4 239/3/4
f 239/3/4 229/3/4 240/3/4
f 240/3/4 229/3/4 241/3/4
f 231/3/4 232/3/4 242/3/4
f 242/3/4 232/3/4 243/3/4
f 233/3/4 234/3/4 244/3/4
f 244/3/4 234/3/4 245/3/4
f 235/3/4 236/3/4 246/3/4
f 246/3/4 236/3/4 247/3/4
f 237/3/4 238/3/4 248/3/4
f 248/3/4 238/3/4 249/3/4
f 239/3/4 240/3/4 250/3/4
f 250/3/4 240/3/4 251/3/4
f 252/4/4 253/4/4 257/4/4
f 257/4/4 253/4/4 258/4/4
f 255/4/4 256/4/4 260/4/4
f 254/1/4 255/1/4 260/1/4
f 257/1/4 258/1/4 261/1/4
f 260/4/4 256/4/4 261/4/4
f 256/1/4 257/1/4 261/1/4
f 258/4/4 259/4/4 262/4/4
f 261/1/4 258/1/4 262/1/4
f 262/4/4 259/4/4 263/4/4
f 260/1/4 261/1/4 266/1/4
f 254/1/4 260/1/4 266/1/4
f 262/1/4 263/1/4 266/1/4
f 261/1/4 262/1/4 266/1/4
f 263/4/4 264/4/4 267/4/4
f 266/1/4 263/1/4 267/1/4
f 267/4/4 264/4/4 268/4/4
f 265/4/4 266/4/4 269/4/4
f 269/4/4 266/4/4 270/4/4
f 266/1/4 267/1/4 271/1/4
f 270/4/4 266/4/4 271/4/4
f 267/1/4 268/1/4 271/1/4
f 271/1/4 268/1/4 272/1/4
f 272/1/4 268/1/4 273/1/4
f 273/1/4 268/1/4 274/1/4
f 269/1/4 270/1/4 275/1/4
f 272/1/4 273/1/4 276/1/4
f 273/2/4 274/2/4 277/2/4
f 276/1/4 273/1/4 277/1/4
f 274/1/4 268/1/4 278/1/4
f 277/2/4 274/2/4 278/2/4
f 276/1/4 277/1/4 279/1/4
f 275/1/4 276/1/4 279/1/4
f 277/1/4 278/1/4 279/1/4
f 269/1/4 275/1/4 279/1/4
f 278/1/4 268/1/4 280/1/4
f 279/1/4 278/1/4 280/1/4
f 284/4/5 282/4/5 281/4/5
f 285/1/5 283/1/5 282/1/5
f 285/4/5 282/4/5 284/4/5
f 286/1/5 283/1/5 285/1/5
f 289/1/5 288/1/5 287/1/5
f 290/1/5 288/1/5 289/1/5
f 293/1/5 292/1/5 291/1/5
f 294/1/5 292/1/5 293/1/5
f 297/4/5 296/4/5 295/4/5
f 298/4/5 296/4/5 297/4/5
f 301/3/5 300/3/5 299/3/5
f 302/3/5 300/3/5 301/3/5
f 305/3/5 304/3/5 303/3/5
f 306/3/5 304/3/5 305/3/5
f 309/3/5 308/3/5 307/3/5
f 310/3/5 308/3/5 309/3/5
f 313/3/5 312/3/5 311/3/5
f 314/3/5 312/3/5 313/3/5
f 317/3/5 316/3/5 315/3/5
f 318/3/5 316/3/5 317/3/5
f 321/3/5 320/3/5 319/3/5
f 322/3/5 320/3/5 321/3/5
f 325/3/5 324/3/5 323/3/5
f 326/3/5 324/3/5 325/3/5
f 329/3/5 328/3/5 327/3/5
f 330/3/5 328/3/5 329/3/5
f 333/3/5 332/3/5 331/3/5
f 334/3/5 332/3/5 333/3/5
f 337/3/5 336/3/5 335/3/5
f 338/3/5 336/3/5 337/3/5
f 339/1/6 340/1/6 341/1/6
f 341/1/6 340/1/6 342/1/6
f 343/4/6 344/4/6 345/4/6
f 345/4/6 344/4/6 346/4/6
f 347/4/6 348/4/6 349/4/6
f 349/4/6 348/4/6 350/4/6
f 352/1/6 353/1/6 354/1/6
f 354/1/6 353/1/6 355/1/6
f 352/1/6 354/1/6 356/1/6
f 351/4/6 352/4/6 358/4/6
f 356/1/6 357/1/6 359/1/6
f 358/4/6 352/4/6 359/4/6
f 352/1/6 356/1/6 359/1/6
f 359/1/6 357/1/6 360/1/6
f 361/3/6 362/3/6 363/3/6
f 363/3/6 362/3/6 364/3/6
f 365/3/6 366/3/6 367/3/6
f 367/3/6 366/3/6 368/3/6
f 369/3/6 370/3/6 371/3/6
f 371/3/6 370/3/6 372/3/6
f 373/3/6 374/3/6 375/3/6
f 375/3/6 374/3/6 376/3/6
f 377/3/6 378/3/6 379/3/6
f 379/3/6 378/3/6 380/3/6
f 381/3/6 382/3/6 383/3/6
f 383/3/6 382/3/6 384/3/6
f 385/3/6 386/3/6 387/3/6
f 387/3/6 386/3/6 388/3/6
f 389/3/6 390/3/6 391/3/6
f 391/3/6 390/3/6 392/3/6
f 393/3/6 394/3/6 395/3/6
f 395/3/6 394/3/6 396/3/6
f 397/3/6 398/3/6 401/3/6
f 401/3/6 398/3/6 402/3/6
f 399/3/6 400/3/6 403/3/6
f 403/3/6 400/3/6 404/3/6
f 405/3/6 406/3/6 407/3/6
f 407/3/6 406/3/6 408/3/6
