# MagicaVoxel @ Ephtracy

# group
o 

# material
mtllib chainsaw_1.mtl
usemtl palette

# normals
vn -1 0 0
vn 1 0 0
vn 0 0 1
vn 0 0 -1
vn 0 -1 0
vn 0 1 0

# texcoords
vt 0.232422 0.5
vt 0.958984 0.5
vt 0.970703 0.5
vt 0.994141 0.5

# verts
v -0.5 0.6 0.2
v -0.5 0.6 -0.2
v -0.5 0.7 0.2
v -0.5 0.7 -0.2
v -0.4 0.2 0.2
v -0.4 0.2 -0.2
v -0.4 0.3 0.2
v -0.4 0.3 0.1
v -0.4 0.3 -0.1
v -0.4 0.3 -0.2
v -0.4 0.4 0.2
v -0.4 0.4 0.1
v -0.4 0.4 -0.1
v -0.4 0.4 -0.2
v -0.4 0.6 0.2
v -0.4 0.6 -0.2
v -0.4 0.7 0.2
v -0.4 0.7 -0.2
v -0.4 0.8 0.2
v -0.4 0.8 -0.2
v -0.3 0.8 0.2
v -0.3 0.8 -0.2
v -0.3 0.9 0.2
v -0.3 0.9 -0.2
v -0.2 0 0.2
v -0.2 0 -0.2
v -0.2 0.2 0.2
v -0.2 0.2 -0.2
v -0.2 0.9 0.1
v -0.2 0.9 -0.1
v -0.2 1 0.1
v -0.2 1 -0.1
v -0.2 1.1 0.1
v -0.2 1.1 -0.1
v -0.2 1.2 0.1
v -0.2 1.2 -0.1
v -0.2 1.3 0.1
v -0.2 1.3 -0.1
v -0.2 1.4 0.1
v -0.2 1.4 -0.1
v -0.2 1.5 0.1
v -0.2 1.5 -0.1
v -0.2 1.6 0.1
v -0.2 1.6 -0.1
v -0.2 1.7 0.1
v -0.2 1.7 -0.1
v -0.2 1.8 0.1
v -0.2 1.8 -0.1
v -0.1 1 0.1
v -0.1 1 -0.1
v -0.1 1.1 0.1
v -0.1 1.1 -0.1
v -0.1 1.2 0.1
v -0.1 1.2 -0.1
v -0.1 1.3 0.1
v -0.1 1.3 -0.1
v -0.1 1.4 0.1
v -0.1 1.4 -0.1
v -0.1 1.5 0.1
v -0.1 1.5 -0.1
v -0.1 1.6 0.1
v -0.1 1.6 -0.1
v -0.1 1.7 0.1
v -0.1 1.7 -0.1
v -0.1 1.8 0.1
v -0.1 1.8 -0.1
v -0.1 2 0.1
v -0.1 2 -0.1
v 0.1 0.1 0.2
v 0.1 0.1 -0.2
v 0.1 0.3 0.2
v 0.1 0.3 -0.2
v -0.1 0.1 0.2
v -0.1 0.1 -0.2
v -0.1 0.2 0.2
v -0.1 0.2 -0.2
v -0.1 0.3 0.2
v -0.1 0.3 -0.2
v 0 1.9 0.1
v 0 1.9 -0.1
v 0 2 0.1
v 0 2 -0.1
v 0.2 0 0.2
v 0.2 0 -0.2
v 0.2 0.9 0.2
v 0.2 0.9 0.1
v 0.2 0.9 -0.1
v 0.2 0.9 -0.2
v 0.2 1 0.1
v 0.2 1 -0.1
v 0.2 1.1 0.1
v 0.2 1.1 -0.1
v 0.2 1.2 0.1
v 0.2 1.2 -0.1
v 0.2 1.3 0.1
v 0.2 1.3 -0.1
v 0.2 1.4 0.1
v 0.2 1.4 -0.1
v 0.2 1.5 0.1
v 0.2 1.5 -0.1
v 0.2 1.6 0.1
v 0.2 1.6 -0.1
v 0.2 1.7 0.1
v 0.2 1.7 -0.1
v 0.2 1.8 0.1
v 0.2 1.8 -0.1
v 0.3 1 0.1
v 0.3 1 -0.1
v 0.3 1.1 0.1
v 0.3 1.1 -0.1
v 0.3 1.2 0.1
v 0.3 1.2 -0.1
v 0.3 1.3 0.1
v 0.3 1.3 -0.1
v 0.3 1.4 0.1
v 0.3 1.4 -0.1
v 0.3 1.5 0.1
v 0.3 1.5 -0.1
v 0.3 1.6 0.1
v 0.3 1.6 -0.1
v 0.3 1.7 0.1
v 0.3 1.7 -0.1
v 0.3 1.8 0.1
v 0.3 1.8 -0.1
v 0.3 1.9 0.1
v 0.3 1.9 -0.1
v -0.5 0.6 0.2
v -0.5 0.7 0.2
v -0.4 0.2 0.2
v -0.4 0.3 0.2
v -0.4 0.4 0.2
v -0.4 0.6 0.2
v -0.4 0.7 0.2
v -0.4 0.8 0.2
v -0.3 0.3 0.2
v -0.3 0.4 0.2
v -0.3 0.7 0.2
v -0.3 0.8 0.2
v -0.3 0.9 0.2
v -0.2 0 0.2
v -0.2 0.2 0.2
v -0.2 0.8 0.2
v -0.2 0.9 0.2
v -0.1 0 0.2
v -0.1 0.1 0.2
v -0.1 0.2 0.2
v -0.1 0.3 0.2
v -0.1 0.4 0.2
v -0.1 0.7 0.2
v 0.1 0.1 0.2
v 0.1 0.3 0.2
v 0.1 0.4 0.2
v 0.1 0.7 0.2
v 0.2 0 0.2
v 0.2 0.9 0.2
v -0.2 0.9 0.1
v -0.2 1 0.1
v -0.2 1.1 0.1
v -0.2 1.2 0.1
v -0.2 1.3 0.1
v -0.2 1.4 0.1
v -0.2 1.5 0.1
v -0.2 1.6 0.1
v -0.2 1.7 0.1
v -0.2 1.8 0.1
v -0.1 1 0.1
v -0.1 1.1 0.1
v -0.1 1.2 0.1
v -0.1 1.3 0.1
v -0.1 1.4 0.1
v -0.1 1.5 0.1
v -0.1 1.6 0.1
v -0.1 1.7 0.1
v -0.1 1.8 0.1
v -0.1 2 0.1
v 0 1.9 0.1
v 0 2 0.1
v 0.2 0.9 0.1
v 0.2 1 0.1
v 0.2 1.1 0.1
v 0.2 1.2 0.1
v 0.2 1.3 0.1
v 0.2 1.4 0.1
v 0.2 1.5 0.1
v 0.2 1.6 0.1
v 0.2 1.7 0.1
v 0.2 1.8 0.1
v 0.3 1 0.1
v 0.3 1.1 0.1
v 0.3 1.2 0.1
v 0.3 1.3 0.1
v 0.3 1.4 0.1
v 0.3 1.5 0.1
v 0.3 1.6 0.1
v 0.3 1.7 0.1
v 0.3 1.8 0.1
v 0.3 1.9 0.1
v -0.2 0.9 -0.1
v -0.2 1 -0.1
v -0.2 1.1 -0.1
v -0.2 1.2 -0.1
v -0.2 1.3 -0.1
v -0.2 1.4 -0.1
v -0.2 1.5 -0.1
v -0.2 1.6 -0.1
v -0.2 1.7 -0.1
v -0.2 1.8 -0.1
v -0.1 1 -0.1
v -0.1 1.1 -0.1
v -0.1 1.2 -0.1
v -0.1 1.3 -0.1
v -0.1 1.4 -0.1
v -0.1 1.5 -0.1
v -0.1 1.6 -0.1
v -0.1 1.7 -0.1
v -0.1 1.8 -0.1
v -0.1 2 -0.1
v 0 1.9 -0.1
v 0 2 -0.1
v 0.2 0.9 -0.1
v 0.2 1 -0.1
v 0.2 1.1 -0.1
v 0.2 1.2 -0.1
v 0.2 1.3 -0.1
v 0.2 1.4 -0.1
v 0.2 1.5 -0.1
v 0.2 1.6 -0.1
v 0.2 1.7 -0.1
v 0.2 1.8 -0.1
v 0.3 1 -0.1
v 0.3 1.1 -0.1
v 0.3 1.2 -0.1
v 0.3 1.3 -0.1
v 0.3 1.4 -0.1
v 0.3 1.5 -0.1
v 0.3 1.6 -0.1
v 0.3 1.7 -0.1
v 0.3 1.8 -0.1
v 0.3 1.9 -0.1
v -0.5 0.6 -0.2
v -0.5 0.7 -0.2
v -0.4 0.2 -0.2
v -0.4 0.3 -0.2
v -0.4 0.4 -0.2
v -0.4 0.6 -0.2
v -0.4 0.7 -0.2
v -0.4 0.8 -0.2
v -0.3 0.3 -0.2
v -0.3 0.4 -0.2
v -0.3 0.7 -0.2
v -0.3 0.8 -0.2
v -0.3 0.9 -0.2
v -0.2 0 -0.2
v -0.2 0.2 -0.2
v -0.2 0.8 -0.2
v -0.2 0.9 -0.2
v -0.1 0 -0.2
v -0.1 0.1 -0.2
v -0.1 0.2 -0.2
v -0.1 0.3 -0.2
v -0.1 0.4 -0.2
v -0.1 0.7 -0.2
v 0.1 0.1 -0.2
v 0.1 0.3 -0.2
v 0.1 0.4 -0.2
v 0.1 0.7 -0.2
v 0.2 0 -0.2
v 0.2 0.9 -0.2
v -0.2 0 0.2
v -0.1 0 0.2
v 0.2 0 0.2
v -0.2 0 -0.2
v -0.1 0 -0.2
v 0.2 0 -0.2
v -0.4 0.2 0.2
v -0.2 0.2 0.2
v -0.4 0.2 -0.2
v -0.2 0.2 -0.2
v -0.1 0.3 0.2
v 0.1 0.3 0.2
v -0.1 0.3 -0.2
v 0.1 0.3 -0.2
v -0.5 0.6 0.2
v -0.4 0.6 0.2
v -0.5 0.6 -0.2
v -0.4 0.6 -0.2
v 0.2 1 0.1
v 0.3 1 0.1
v 0.2 1 -0.1
v 0.3 1 -0.1
v -0.2 1.1 0.1
v -0.1 1.1 0.1
v -0.2 1.1 -0.1
v -0.1 1.1 -0.1
v 0.2 1.2 0.1
v 0.3 1.2 0.1
v 0.2 1.2 -0.1
v 0.3 1.2 -0.1
v -0.2 1.3 0.1
v -0.1 1.3 0.1
v -0.2 1.3 -0.1
v -0.1 1.3 -0.1
v 0.2 1.4 0.1
v 0.3 1.4 0.1
v 0.2 1.4 -0.1
v 0.3 1.4 -0.1
v -0.2 1.5 0.1
v -0.1 1.5 0.1
v -0.2 1.5 -0.1
v -0.1 1.5 -0.1
v 0.2 1.6 0.1
v 0.3 1.6 0.1
v 0.2 1.6 -0.1
v 0.3 1.6 -0.1
v -0.2 1.7 0.1
v -0.1 1.7 0.1
v -0.2 1.7 -0.1
v -0.1 1.7 -0.1
v 0.2 1.8 0.1
v 0.3 1.8 0.1
v 0.2 1.8 -0.1
v 0.3 1.8 -0.1
v -0.1 0.1 0.2
v 0.1 0.1 0.2
v -0.1 0.1 -0.2
v 0.1 0.1 -0.2
v -0.5 0.7 0.2
v -0.4 0.7 0.2
v -0.5 0.7 -0.2
v -0.4 0.7 -0.2
v -0.4 0.8 0.2
v -0.3 0.8 0.2
v -0.4 0.8 -0.2
v -0.3 0.8 -0.2
v -0.3 0.9 0.2
v -0.2 0.9 0.2
v 0.2 0.9 0.2
v -0.2 0.9 0.1
v 0.2 0.9 0.1
v -0.2 0.9 -0.1
v 0.2 0.9 -0.1
v -0.3 0.9 -0.2
v -0.2 0.9 -0.2
v 0.2 0.9 -0.2
v -0.2 1 0.1
v -0.1 1 0.1
v -0.2 1 -0.1
v -0.1 1 -0.1
v 0.2 1.1 0.1
v 0.3 1.1 0.1
v 0.2 1.1 -0.1
v 0.3 1.1 -0.1
v -0.2 1.2 0.1
v -0.1 1.2 0.1
v -0.2 1.2 -0.1
v -0.1 1.2 -0.1
v 0.2 1.3 0.1
v 0.3 1.3 0.1
v 0.2 1.3 -0.1
v 0.3 1.3 -0.1
v -0.2 1.4 0.1
v -0.1 1.4 0.1
v -0.2 1.4 -0.1
v -0.1 1.4 -0.1
v 0.2 1.5 0.1
v 0.3 1.5 0.1
v 0.2 1.5 -0.1
v 0.3 1.5 -0.1
v -0.2 1.6 0.1
v -0.1 1.6 0.1
v -0.2 1.6 -0.1
v -0.1 1.6 -0.1
v 0.2 1.7 0.1
v 0.3 1.7 0.1
v 0.2 1.7 -0.1
v 0.3 1.7 -0.1
v -0.2 1.8 0.1
v -0.1 1.8 0.1
v -0.2 1.8 -0.1
v -0.1 1.8 -0.1
v 0 1.9 0.1
v 0.3 1.9 0.1
v 0 1.9 -0.1
v 0.3 1.9 -0.1
v -0.1 2 0.1
v 0 2 0.1
v -0.1 2 -0.1
v 0 2 -0.1

# faces
f 3/4/1 2/4/1 1/4/1
f 4/4/1 2/4/1 3/4/1
f 7/1/1 6/1/1 5/1/1
f 8/1/1 6/1/1 7/1/1
f 9/1/1 6/1/1 8/1/1
f 10/1/1 6/1/1 9/1/1
f 11/4/1 8/4/1 7/4/1
f 12/1/1 9/1/1 8/1/1
f 12/4/1 8/4/1 11/4/1
f 13/4/1 10/4/1 9/4/1
f 13/1/1 9/1/1 12/1/1
f 14/4/1 10/4/1 13/4/1
f 15/1/1 12/1/1 11/1/1
f 15/1/1 13/1/1 12/1/1
f 15/1/1 14/1/1 13/1/1
f 16/1/1 14/1/1 15/1/1
f 19/4/1 18/4/1 17/4/1
f 20/4/1 18/4/1 19/4/1
f 23/4/1 22/4/1 21/4/1
f 24/4/1 22/4/1 23/4/1
f 27/4/1 26/4/1 25/4/1
f 28/4/1 26/4/1 27/4/1
f 31/3/1 30/3/1 29/3/1
f 32/3/1 30/3/1 31/3/1
f 35/3/1 34/3/1 33/3/1
f 36/3/1 34/3/1 35/3/1
f 39/3/1 38/3/1 37/3/1
f 40/3/1 38/3/1 39/3/1
f 43/3/1 42/3/1 41/3/1
f 44/3/1 42/3/1 43/3/1
f 47/3/1 46/3/1 45/3/1
f 48/3/1 46/3/1 47/3/1
f 51/3/1 50/3/1 49/3/1
f 52/3/1 50/3/1 51/3/1
f 55/3/1 54/3/1 53/3/1
f 56/3/1 54/3/1 55/3/1
f 59/3/1 58/3/1 57/3/1
f 60/3/1 58/3/1 59/3/1
f 63/3/1 62/3/1 61/3/1
f 64/3/1 62/3/1 63/3/1
f 67/3/1 66/3/1 65/3/1
f 68/3/1 66/3/1 67/3/1
f 71/1/1 70/1/1 69/1/1
f 72/1/1 70/1/1 71/1/1
f 73/4/2 74/4/2 75/4/2
f 75/4/2 74/4/2 76/4/2
f 75/1/2 76/1/2 77/1/2
f 77/1/2 76/1/2 78/1/2
f 79/3/2 80/3/2 81/3/2
f 81/3/2 80/3/2 82/3/2
f 83/1/2 84/1/2 85/1/2
f 85/1/2 84/1/2 86/1/2
f 86/1/2 84/1/2 87/1/2
f 87/1/2 84/1/2 88/1/2
f 86/3/2 87/3/2 89/3/2
f 89/3/2 87/3/2 90/3/2
f 91/3/2 92/3/2 93/3/2
f 93/3/2 92/3/2 94/3/2
f 95/3/2 96/3/2 97/3/2
f 97/3/2 96/3/2 98/3/2
f 99/3/2 100/3/2 101/3/2
f 101/3/2 100/3/2 102/3/2
f 103/3/2 104/3/2 105/3/2
f 105/3/2 104/3/2 106/3/2
f 107/3/2 108/3/2 109/3/2
f 109/3/2 108/3/2 110/3/2
f 111/3/2 112/3/2 113/3/2
f 113/3/2 112/3/2 114/3/2
f 115/3/2 116/3/2 117/3/2
f 117/3/2 116/3/2 118/3/2
f 119/3/2 120/3/2 121/3/2
f 121/3/2 120/3/2 122/3/2
f 123/3/2 124/3/2 125/3/2
f 125/3/2 124/3/2 126/3/2
f 132/4/3 128/4/3 127/4/3
f 133/4/3 128/4/3 132/4/3
f 135/4/3 131/4/3 130/4/3
f 135/1/3 130/1/3 129/1/3
f 136/1/3 133/1/3 132/1/3
f 136/4/3 131/4/3 135/4/3
f 136/1/3 132/1/3 131/1/3
f 137/4/3 134/4/3 133/4/3
f 137/1/3 133/1/3 136/1/3
f 138/4/3 134/4/3 137/4/3
f 141/1/3 136/1/3 135/1/3
f 141/1/3 135/1/3 129/1/3
f 141/1/3 138/1/3 137/1/3
f 141/1/3 137/1/3 136/1/3
f 142/4/3 139/4/3 138/4/3
f 142/1/3 138/1/3 141/1/3
f 143/4/3 139/4/3 142/4/3
f 144/4/3 141/4/3 140/4/3
f 145/4/3 141/4/3 144/4/3
f 146/1/3 142/1/3 141/1/3
f 146/4/3 141/4/3 145/4/3
f 146/1/3 143/1/3 142/1/3
f 147/1/3 143/1/3 146/1/3
f 148/1/3 143/1/3 147/1/3
f 149/1/3 143/1/3 148/1/3
f 150/1/3 145/1/3 144/1/3
f 151/1/3 148/1/3 147/1/3
f 152/2/3 149/2/3 148/2/3
f 152/1/3 148/1/3 151/1/3
f 153/1/3 143/1/3 149/1/3
f 153/2/3 149/2/3 152/2/3
f 154/1/3 152/1/3 151/1/3
f 154/1/3 151/1/3 150/1/3
f 154/1/3 153/1/3 152/1/3
f 154/1/3 150/1/3 144/1/3
f 155/1/3 143/1/3 153/1/3
f 155/1/3 153/1/3 154/1/3
f 166/3/3 157/3/3 156/3/3
f 167/3/3 159/3/3 158/3/3
f 168/3/3 159/3/3 167/3/3
f 169/3/3 161/3/3 160/3/3
f 170/3/3 161/3/3 169/3/3
f 171/3/3 163/3/3 162/3/3
f 172/3/3 163/3/3 171/3/3
f 173/3/3 165/3/3 164/3/3
f 174/3/3 165/3/3 173/3/3
f 176/3/3 172/3/3 171/3/3
f 176/3/3 175/3/3 174/3/3
f 176/3/3 174/3/3 173/3/3
f 176/3/3 173/3/3 172/3/3
f 176/3/3 168/3/3 167/3/3
f 176/3/3 171/3/3 170/3/3
f 176/3/3 170/3/3 169/3/3
f 176/3/3 169/3/3 168/3/3
f 176/3/3 167/3/3 166/3/3
f 177/3/3 175/3/3 176/3/3
f 178/3/3 166/3/3 156/3/3
f 178/3/3 176/3/3 166/3/3
f 179/3/3 176/3/3 178/3/3
f 180/3/3 176/3/3 179/3/3
f 181/3/3 176/3/3 180/3/3
f 182/3/3 176/3/3 181/3/3
f 183/3/3 176/3/3 182/3/3
f 184/3/3 176/3/3 183/3/3
f 185/3/3 176/3/3 184/3/3
f 186/3/3 176/3/3 185/3/3
f 187/3/3 176/3/3 186/3/3
f 188/3/3 180/3/3 179/3/3
f 189/3/3 180/3/3 188/3/3
f 190/3/3 182/3/3 181/3/3
f 191/3/3 182/3/3 190/3/3
f 192/3/3 184/3/3 183/3/3
f 193/3/3 184/3/3 192/3/3
f 194/3/3 186/3/3 185/3/3
f 195/3/3 186/3/3 194/3/3
f 196/3/3 176/3/3 187/3/3
f 197/3/3 176/3/3 196/3/3
f 198/3/4 199/3/4 208/3/4
f 200/3/4 201/3/4 209/3/4
f 209/3/4 201/3/4 210/3/4
f 202/3/4 203/3/4 211/3/4
f 211/3/4 203/3/4 212/3/4
f 204/3/4 205/3/4 213/3/4
f 213/3/4 205/3/4 214/3/4
f 206/3/4 207/3/4 215/3/4
f 215/3/4 207/3/4 216/3/4
f 213/3/4 214/3/4 218/3/4
f 216/3/4 217/3/4 218/3/4
f 215/3/4 216/3/4 218/3/4
f 214/3/4 215/3/4 218/3/4
f 209/3/4 210/3/4 218/3/4
f 212/3/4 213/3/4 218/3/4
f 211/3/4 212/3/4 218/3/4
f 210/3/4 211/3/4 218/3/4
f 208/3/4 209/3/4 218/3/4
f 218/3/4 217/3/4 219/3/4
f 198/3/4 208/3/4 220/3/4
f 208/3/4 218/3/4 220/3/4
f 220/3/4 218/3/4 221/3/4
f 221/3/4 218/3/4 222/3/4
f 222/3/4 218/3/4 223/3/4
f 223/3/4 218/3/4 224/3/4
f 224/3/4 218/3/4 225/3/4
f 225/3/4 218/3/4 226/3/4
f 226/3/4 218/3/4 227/3/4
f 227/3/4 218/3/4 228/3/4
f 228/3/4 218/3/4 229/3/4
f 221/3/4 222/3/4 230/3/4
f 230/3/4 222/3/4 231/3/4
f 223/3/4 224/3/4 232/3/4
f 232/3/4 224/3/4 233/3/4
f 225/3/4 226/3/4 234/3/4
f 234/3/4 226/3/4 235/3/4
f 227/3/4 228/3/4 236/3/4
f 236/3/4 228/3/4 237/3/4
f 229/3/4 218/3/4 238/3/4
f 238/3/4 218/3/4 239/3/4
f 240/4/4 241/4/4 245/4/4
f 245/4/4 241/4/4 246/4/4
f 243/4/4 244/4/4 248/4/4
f 242/1/4 243/1/4 248/1/4
f 245/1/4 246/1/4 249/1/4
f 248/4/4 244/4/4 249/4/4
f 244/1/4 245/1/4 249/1/4
f 246/4/4 247/4/4 250/4/4
f 249/1/4 246/1/4 250/1/4
f 250/4/4 247/4/4 251/4/4
f 248/1/4 249/1/4 254/1/4
f 242/1/4 248/1/4 254/1/4
f 250/1/4 251/1/4 254/1/4
f 249/1/4 250/1/4 254/1/4
f 251/4/4 252/4/4 255/4/4
f 254/1/4 251/1/4 255/1/4
f 255/4/4 252/4/4 256/4/4
f 253/4/4 254/4/4 257/4/4
f 257/4/4 254/4/4 258/4/4
f 254/1/4 255/1/4 259/1/4
f 258/4/4 254/4/4 259/4/4
f 255/1/4 256/1/4 259/1/4
f 259/1/4 256/1/4 260/1/4
f 260/1/4 256/1/4 261/1/4
f 261/1/4 256/1/4 262/1/4
f 257/1/4 258/1/4 263/1/4
f 260/1/4 261/1/4 264/1/4
f 261/2/4 262/2/4 265/2/4
f 264/1/4 261/1/4 265/1/4
f 262/1/4 256/1/4 266/1/4
f 265/2/4 262/2/4 266/2/4
f 264/1/4 265/1/4 267/1/4
f 263/1/4 264/1/4 267/1/4
f 265/1/4 266/1/4 267/1/4
f 257/1/4 263/1/4 267/1/4
f 266/1/4 256/1/4 268/1/4
f 267/1/4 266/1/4 268/1/4
f 272/4/5 270/4/5 269/4/5
f 273/1/5 271/1/5 270/1/5
f 273/4/5 270/4/5 272/4/5
f 274/1/5 271/1/5 273/1/5
f 277/1/5 276/1/5 275/1/5
f 278/1/5 276/1/5 277/1/5
f 281/1/5 280/1/5 279/1/5
f 282/1/5 280/1/5 281/1/5
f 285/4/5 284/4/5 283/4/5
f 286/4/5 284/4/5 285/4/5
f 289/3/5 288/3/5 287/3/5
f 290/3/5 288/3/5 289/3/5
f 293/3/5 292/3/5 291/3/5
f 294/3/5 292/3/5 293/3/5
f 297/3/5 296/3/5 295/3/5
f 298/3/5 296/3/5 297/3/5
f 301/3/5 300/3/5 299/3/5
f 302/3/5 300/3/5 301/3/5
f 305/3/5 304/3/5 303/3/5
f 306/3/5 304/3/5 305/3/5
f 309/3/5 308/3/5 307/3/5
f 310/3/5 308/3/5 309/3/5
f 313/3/5 312/3/5 311/3/5
f 314/3/5 312/3/5 313/3/5
f 317/3/5 316/3/5 315/3/5
f 318/3/5 316/3/5 317/3/5
f 321/3/5 320/3/5 319/3/5
f 322/3/5 320/3/5 321/3/5
f 323/1/6 324/1/6 325/1/6
f 325/1/6 324/1/6 326/1/6
f 327/4/6 328/4/6 329/4/6
f 329/4/6 328/4/6 330/4/6
f 331/4/6 332/4/6 333/4/6
f 333/4/6 332/4/6 334/4/6
f 335/4/6 336/4/6 338/4/6
f 336/1/6 337/1/6 338/1/6
f 338/1/6 337/1/6 339/1/6
f 335/4/6 338/4/6 340/4/6
f 335/4/6 340/4/6 342/4/6
f 340/1/6 341/1/6 343/1/6
f 342/4/6 340/4/6 343/4/6
f 343/1/6 341/1/6 344/1/6
f 345/3/6 346/3/6 347/3/6
f 347/3/6 346/3/6 348/3/6
f 349/3/6 350/3/6 351/3/6
f 351/3/6 350/3/6 352/3/6
f 353/3/6 354/3/6 355/3/6
f 355/3/6 354/3/6 356/3/6
f 357/3/6 358/3/6 359/3/6
f 359/3/6 358/3/6 360/3/6
f 361/3/6 362/3/6 363/3/6
f 363/3/6 362/3/6 364/3/6
f 365/3/6 366/3/6 367/3/6
f 367/3/6 366/3/6 368/3/6
f 369/3/6 370/3/6 371/3/6
f 371/3/6 370/3/6 372/3/6
f 373/3/6 374/3/6 375/3/6
f 375/3/6 374/3/6 376/3/6
f 377/3/6 378/3/6 379/3/6
f 379/3/6 378/3/6 380/3/6
f 381/3/6 382/3/6 383/3/6
f 383/3/6 382/3/6 384/3/6
f 385/3/6 386/3/6 387/3/6
f 387/3/6 386/3/6 388/3/6
