# MagicaVoxel @ Ephtracy

# group
o 

# material
mtllib fish.mtl
usemtl palette

# normals
vn -1 0 0
vn 1 0 0
vn 0 0 1
vn 0 0 -1
vn 0 -1 0
vn 0 1 0

# texcoords
vt 0.587891 0.5
vt 0.841797 0.5
vt 0.935547 0.5
vt 0.958984 0.5

# verts
v -0.8 0.8 0
v -0.8 0.8 -0.1
v -0.8 1.3 0
v -0.8 1.3 -0.1
v -0.7 1.3 0
v -0.7 1.3 -0.1
v -0.7 1.4 0
v -0.7 1.4 -0.1
v -0.6 0 0.1
v -0.6 0 -0.2
v -0.6 0.1 0.1
v -0.6 0.1 -0.2
v -0.6 1.4 0
v -0.6 1.4 -0.1
v -0.6 1.5 0
v -0.6 1.5 -0.1
v -0.5 0.1 0.1
v -0.5 0.1 -0.2
v -0.5 0.2 0.1
v -0.5 0.2 -0.2
v -0.5 0.8 0.1
v -0.5 0.8 -0.2
v -0.5 1 0.1
v -0.5 1 0
v -0.5 1 -0.1
v -0.5 1 -0.2
v -0.5 1.1 0.1
v -0.5 1.1 0
v -0.5 1.1 -0.1
v -0.5 1.1 -0.2
v -0.5 1.3 0.1
v -0.5 1.3 0
v -0.5 1.3 -0.1
v -0.5 1.3 -0.2
v -0.5 1.4 0.1
v -0.5 1.4 0
v -0.5 1.4 -0.1
v -0.5 1.4 -0.2
v -0.5 1.5 0
v -0.5 1.5 -0.1
v -0.5 1.6 0.1
v -0.5 1.6 -0.2
v -0.4 0.2 0.1
v -0.4 0.2 -0.2
v -0.4 0.3 0.1
v -0.4 0.3 -0.2
v -0.4 0.6 0.1
v -0.4 0.6 -0.2
v -0.4 0.7 0.1
v -0.4 0.7 -0.2
v -0.4 0.8 0.1
v -0.4 0.8 -0.2
v -0.4 1.6 0.1
v -0.4 1.6 -0.2
v -0.4 1.7 0.1
v -0.4 1.7 -0.2
v -0.4 1.8 0.1
v -0.4 1.8 -0.2
v -0.3 0.4 0.1
v -0.3 0.4 -0.2
v -0.3 0.5 0.1
v -0.3 0.5 -0.2
v -0.3 0.6 0.1
v -0.3 0.6 -0.2
v -0.3 1.5 0.2
v -0.3 1.5 0.1
v -0.3 1.5 -0.2
v -0.3 1.5 -0.3
v -0.3 1.7 0.1
v -0.3 1.7 -0.2
v -0.3 1.8 0.2
v -0.3 1.8 0.1
v -0.3 1.8 -0.2
v -0.3 1.8 -0.3
v -0.3 1.9 0.1
v -0.3 1.9 -0.2
v -0.2 0.3 0.1
v -0.2 0.3 -0.2
v -0.2 0.4 0.1
v -0.2 0.4 -0.2
v -0.1 1.9 0.1
v -0.1 1.9 0
v -0.1 1.9 -0.1
v -0.1 1.9 -0.2
v -0.1 2 0.1
v -0.1 2 -0.2
v 0.1 1.9 0
v 0.1 1.9 -0.1
v 0.1 2 0
v 0.1 2 -0.1
v 0.5 0.5 0
v 0.5 0.5 -0.1
v 0.5 0.6 0
v 0.5 0.6 -0.1
v 0.5 1.2 0
v 0.5 1.2 -0.1
v 0.5 1.3 0
v 0.5 1.3 -0.1
v -0.7 0.8 0
v -0.7 0.8 -0.1
v -0.7 0.9 0
v -0.7 0.9 -0.1
v -0.6 0.9 0
v -0.6 0.9 -0.1
v -0.6 1 0
v -0.6 1 -0.1
v 5.96046e-08 1.5 0.2
v 5.96046e-08 1.5 0.1
v 5.96046e-08 1.5 -0.2
v 5.96046e-08 1.5 -0.3
v 5.96046e-08 1.6 0.1
v 5.96046e-08 1.6 -0.2
v 5.96046e-08 1.7 0.1
v 5.96046e-08 1.7 -0.2
v 5.96046e-08 1.8 0.2
v 5.96046e-08 1.8 0.1
v 5.96046e-08 1.8 -0.2
v 5.96046e-08 1.8 -0.3
v 5.96046e-08 1.9 0
v 5.96046e-08 1.9 -0.1
v 5.96046e-08 2 0
v 5.96046e-08 2 -0.1
v 0.2 1.9 0.1
v 0.2 1.9 -0.2
v 0.2 2 0.1
v 0.2 2 -0.2
v 0.3 0.3 0.1
v 0.3 0.3 -0.2
v 0.3 0.5 0.1
v 0.3 0.5 -0.2
v 0.3 1.7 0.1
v 0.3 1.7 -0.2
v 0.3 1.9 0.1
v 0.3 1.9 -0.2
v 0.4 0.2 0.1
v 0.4 0.2 -0.2
v 0.4 0.3 0.1
v 0.4 0.3 -0.2
v 0.4 0.5 0.1
v 0.4 0.5 -0.2
v 0.4 0.6 0
v 0.4 0.6 -0.1
v 0.4 0.9 0
v 0.4 0.9 -0.1
v 0.4 1.3 0
v 0.4 1.3 -0.1
v 0.4 1.5 0
v 0.4 1.5 -0.1
v 0.4 1.7 0.1
v 0.4 1.7 -0.2
v 0.5 0.1 0.1
v 0.5 0.1 -0.2
v 0.5 0.2 0.1
v 0.5 0.2 -0.2
v 0.5 0.8 0
v 0.5 0.8 -0.1
v 0.5 0.9 0
v 0.5 0.9 -0.1
v 0.5 1.4 0
v 0.5 1.4 -0.1
v 0.5 1.5 0
v 0.5 1.5 -0.1
v 0.6 0 0.1
v 0.6 0 -0.2
v 0.6 0.1 0.1
v 0.6 0.1 -0.2
v 0.6 0.5 0
v 0.6 0.5 -0.1
v 0.6 0.8 0
v 0.6 0.8 -0.1
v 0.6 1.2 0
v 0.6 1.2 -0.1
v 0.6 1.4 0
v 0.6 1.4 -0.1
v -0.3 1.5 0.2
v -0.3 1.8 0.2
v -0.2 1.6 0.2
v -0.2 1.7 0.2
v -0.1 1.6 0.2
v -0.1 1.7 0.2
v 5.96046e-08 1.5 0.2
v 5.96046e-08 1.8 0.2
v -0.6 0 0.1
v -0.6 0.1 0.1
v -0.5 0.1 0.1
v -0.5 0.2 0.1
v -0.5 0.8 0.1
v -0.5 1 0.1
v -0.5 1.1 0.1
v -0.5 1.3 0.1
v -0.5 1.4 0.1
v -0.5 1.6 0.1
v -0.4 0.2 0.1
v -0.4 0.3 0.1
v -0.4 0.6 0.1
v -0.4 0.7 0.1
v -0.4 0.8 0.1
v -0.4 0.9 0.1
v -0.4 1 0.1
v -0.4 1.2 0.1
v -0.4 1.3 0.1
v -0.4 1.5 0.1
v -0.4 1.6 0.1
v -0.4 1.7 0.1
v -0.4 1.8 0.1
v -0.3 0.4 0.1
v -0.3 0.5 0.1
v -0.3 0.6 0.1
v -0.3 0.7 0.1
v -0.3 1 0.1
v -0.3 1.1 0.1
v -0.3 1.3 0.1
v -0.3 1.4 0.1
v -0.3 1.5 0.1
v -0.3 1.7 0.1
v -0.3 1.8 0.1
v -0.3 1.9 0.1
v -0.2 0.3 0.1
v -0.2 0.4 0.1
v -0.2 0.7 0.1
v -0.2 0.8 0.1
v -0.2 1.8 0.1
v -0.2 1.9 0.1
v -0.1 0.4 0.1
v -0.1 0.5 0.1
v -0.1 0.9 0.1
v -0.1 1 0.1
v -0.1 1.2 0.1
v -0.1 1.3 0.1
v -0.1 1.8 0.1
v -0.1 1.9 0.1
v -0.1 2 0.1
v 5.96046e-08 0.6 0.1
v 5.96046e-08 0.7 0.1
v 5.96046e-08 1.5 0.1
v 5.96046e-08 1.6 0.1
v 5.96046e-08 1.7 0.1
v 5.96046e-08 1.8 0.1
v 0.1 0.3 0.1
v 0.1 0.4 0.1
v 0.1 1.5 0.1
v 0.1 1.6 0.1
v 0.1 1.7 0.1
v 0.2 1.5 0.1
v 0.2 1.6 0.1
v 0.2 1.9 0.1
v 0.2 2 0.1
v 0.3 0.3 0.1
v 0.3 0.5 0.1
v 0.3 1.7 0.1
v 0.3 1.9 0.1
v 0.4 0.2 0.1
v 0.4 0.3 0.1
v 0.4 0.5 0.1
v 0.4 1.7 0.1
v 0.5 0.1 0.1
v 0.5 0.2 0.1
v 0.6 0 0.1
v 0.6 0.1 0.1
v -0.8 0.8 0
v -0.8 1.3 0
v -0.7 0.8 0
v -0.7 0.9 0
v -0.7 1.3 0
v -0.7 1.4 0
v -0.6 0.9 0
v -0.6 1 0
v -0.6 1.4 0
v -0.6 1.5 0
v -0.5 1 0
v -0.5 1.1 0
v -0.5 1.3 0
v -0.5 1.4 0
v -0.5 1.5 0
v 0.4 0.6 0
v 0.4 0.9 0
v 0.4 1.3 0
v 0.4 1.5 0
v 0.5 0.5 0
v 0.5 0.6 0
v 0.5 0.8 0
v 0.5 0.9 0
v 0.5 1.2 0
v 0.5 1.3 0
v 0.5 1.4 0
v 0.5 1.5 0
v 0.6 0.5 0
v 0.6 0.8 0
v 0.6 1.2 0
v 0.6 1.4 0
v 5.96046e-08 1.9 -0.1
v 5.96046e-08 2 -0.1
v 0.1 1.9 -0.1
v 0.1 2 -0.1
v 5.96046e-08 1.9 0
v 5.96046e-08 2 0
v 0.1 1.9 0
v 0.1 2 0
v -0.8 0.8 -0.1
v -0.8 1.3 -0.1
v -0.7 0.8 -0.1
v -0.7 0.9 -0.1
v -0.7 1.3 -0.1
v -0.7 1.4 -0.1
v -0.6 0.9 -0.1
v -0.6 1 -0.1
v -0.6 1.4 -0.1
v -0.6 1.5 -0.1
v -0.5 1 -0.1
v -0.5 1.1 -0.1
v -0.5 1.3 -0.1
v -0.5 1.4 -0.1
v -0.5 1.5 -0.1
v 0.4 0.6 -0.1
v 0.4 0.9 -0.1
v 0.4 1.3 -0.1
v 0.4 1.5 -0.1
v 0.5 0.5 -0.1
v 0.5 0.6 -0.1
v 0.5 0.8 -0.1
v 0.5 0.9 -0.1
v 0.5 1.2 -0.1
v 0.5 1.3 -0.1
v 0.5 1.4 -0.1
v 0.5 1.5 -0.1
v 0.6 0.5 -0.1
v 0.6 0.8 -0.1
v 0.6 1.2 -0.1
v 0.6 1.4 -0.1
v -0.6 0 -0.2
v -0.6 0.1 -0.2
v -0.5 0.1 -0.2
v -0.5 0.2 -0.2
v -0.5 0.8 -0.2
v -0.5 1 -0.2
v -0.5 1.1 -0.2
v -0.5 1.3 -0.2
v -0.5 1.4 -0.2
v -0.5 1.6 -0.2
v -0.4 0.2 -0.2
v -0.4 0.3 -0.2
v -0.4 0.6 -0.2
v -0.4 0.7 -0.2
v -0.4 0.8 -0.2
v -0.4 0.9 -0.2
v -0.4 1 -0.2
v -0.4 1.2 -0.2
v -0.4 1.3 -0.2
v -0.4 1.5 -0.2
v -0.4 1.6 -0.2
v -0.4 1.7 -0.2
v -0.4 1.8 -0.2
v -0.3 0.4 -0.2
v -0.3 0.5 -0.2
v -0.3 0.6 -0.2
v -0.3 0.7 -0.2
v -0.3 1 -0.2
v -0.3 1.1 -0.2
v -0.3 1.3 -0.2
v -0.3 1.4 -0.2
v -0.3 1.5 -0.2
v -0.3 1.7 -0.2
v -0.3 1.8 -0.2
v -0.3 1.9 -0.2
v -0.2 0.3 -0.2
v -0.2 0.4 -0.2
v -0.2 0.7 -0.2
v -0.2 0.8 -0.2
v -0.2 1.8 -0.2
v -0.2 1.9 -0.2
v -0.1 0.4 -0.2
v -0.1 0.5 -0.2
v -0.1 0.9 -0.2
v -0.1 1 -0.2
v -0.1 1.2 -0.2
v -0.1 1.3 -0.2
v -0.1 1.8 -0.2
v -0.1 1.9 -0.2
v -0.1 2 -0.2
v 5.96046e-08 0.6 -0.2
v 5.96046e-08 0.7 -0.2
v 5.96046e-08 1.5 -0.2
v 5.96046e-08 1.6 -0.2
v 5.96046e-08 1.7 -0.2
v 5.96046e-08 1.8 -0.2
v 0.1 0.3 -0.2
v 0.1 0.4 -0.2
v 0.1 1.5 -0.2
v 0.1 1.6 -0.2
v 0.1 1.7 -0.2
v 0.2 1.5 -0.2
v 0.2 1.6 -0.2
v 0.2 1.9 -0.2
v 0.2 2 -0.2
v 0.3 0.3 -0.2
v 0.3 0.5 -0.2
v 0.3 1.7 -0.2
v 0.3 1.9 -0.2
v 0.4 0.2 -0.2
v 0.4 0.3 -0.2
v 0.4 0.5 -0.2
v 0.4 1.7 -0.2
v 0.5 0.1 -0.2
v 0.5 0.2 -0.2
v 0.6 0 -0.2
v 0.6 0.1 -0.2
v -0.3 1.5 -0.3
v -0.3 1.8 -0.3
v -0.2 1.6 -0.3
v -0.2 1.7 -0.3
v -0.1 1.6 -0.3
v -0.1 1.7 -0.3
v 5.96046e-08 1.5 -0.3
v 5.96046e-08 1.8 -0.3
v -0.6 0 0.1
v 0.6 0 0.1
v -0.6 0 -0.2
v 0.6 0 -0.2
v -0.3 0.4 0.1
v -0.2 0.4 0.1
v -0.3 0.4 -0.2
v -0.2 0.4 -0.2
v 0.3 0.5 0.1
v 0.4 0.5 0.1
v 0.5 0.5 0
v 0.6 0.5 0
v 0.5 0.5 -0.1
v 0.6 0.5 -0.1
v 0.3 0.5 -0.2
v 0.4 0.5 -0.2
v -0.4 0.6 0.1
v -0.3 0.6 0.1
v 0.4 0.6 0
v 0.5 0.6 0
v 0.4 0.6 -0.1
v 0.5 0.6 -0.1
v -0.4 0.6 -0.2
v -0.3 0.6 -0.2
v -0.5 0.8 0.1
v -0.4 0.8 0.1
v -0.8 0.8 0
v -0.7 0.8 0
v -0.8 0.8 -0.1
v -0.7 0.8 -0.1
v -0.5 0.8 -0.2
v -0.4 0.8 -0.2
v -0.7 0.9 0
v -0.6 0.9 0
v -0.7 0.9 -0.1
v -0.6 0.9 -0.1
v -0.6 1 0
v -0.5 1 0
v -0.6 1 -0.1
v -0.5 1 -0.1
v 0.5 1.2 0
v 0.6 1.2 0
v 0.5 1.2 -0.1
v 0.6 1.2 -0.1
v 0.4 1.3 0
v 0.5 1.3 0
v 0.4 1.3 -0.1
v 0.5 1.3 -0.1
v -0.3 1.5 0.2
v 5.96046e-08 1.5 0.2
v -0.3 1.5 0.1
v 5.96046e-08 1.5 0.1
v -0.3 1.5 -0.2
v 5.96046e-08 1.5 -0.2
v -0.3 1.5 -0.3
v 5.96046e-08 1.5 -0.3
v -0.6 0.1 0.1
v -0.5 0.1 0.1
v 0.5 0.1 0.1
v 0.6 0.1 0.1
v -0.6 0.1 -0.2
v -0.5 0.1 -0.2
v 0.5 0.1 -0.2
v 0.6 0.1 -0.2
v -0.5 0.2 0.1
v -0.4 0.2 0.1
v 0.4 0.2 0.1
v 0.5 0.2 0.1
v -0.5 0.2 -0.2
v -0.4 0.2 -0.2
v 0.4 0.2 -0.2
v 0.5 0.2 -0.2
v -0.4 0.3 0.1
v -0.2 0.3 0.1
v 0.3 0.3 0.1
v 0.4 0.3 0.1
v -0.4 0.3 -0.2
v -0.2 0.3 -0.2
v 0.3 0.3 -0.2
v 0.4 0.3 -0.2
v 0.5 0.8 0
v 0.6 0.8 0
v 0.5 0.8 -0.1
v 0.6 0.8 -0.1
v 0.4 0.9 0
v 0.5 0.9 0
v 0.4 0.9 -0.1
v 0.5 0.9 -0.1
v -0.8 1.3 0
v -0.7 1.3 0
v -0.8 1.3 -0.1
v -0.7 1.3 -0.1
v -0.7 1.4 0
v -0.6 1.4 0
v 0.5 1.4 0
v 0.6 1.4 0
v -0.7 1.4 -0.1
v -0.6 1.4 -0.1
v 0.5 1.4 -0.1
v 0.6 1.4 -0.1
v -0.6 1.5 0
v -0.5 1.5 0
v 0.4 1.5 0
v 0.5 1.5 0
v -0.6 1.5 -0.1
v -0.5 1.5 -0.1
v 0.4 1.5 -0.1
v 0.5 1.5 -0.1
v -0.5 1.6 0.1
v -0.4 1.6 0.1
v -0.5 1.6 -0.2
v -0.4 1.6 -0.2
v 0.3 1.7 0.1
v 0.4 1.7 0.1
v 0.3 1.7 -0.2
v 0.4 1.7 -0.2
v -0.3 1.8 0.2
v 5.96046e-08 1.8 0.2
v -0.4 1.8 0.1
v -0.3 1.8 0.1
v -0.2 1.8 0.1
v -0.1 1.8 0.1
v 5.96046e-08 1.8 0.1
v -0.4 1.8 -0.2
v -0.3 1.8 -0.2
v -0.2 1.8 -0.2
v -0.1 1.8 -0.2
v 5.96046e-08 1.8 -0.2
v -0.3 1.8 -0.3
v 5.96046e-08 1.8 -0.3
v -0.3 1.9 0.1
v -0.2 1.9 0.1
v -0.1 1.9 0.1
v 0.2 1.9 0.1
v 0.3 1.9 0.1
v -0.2 1.9 0
v -0.1 1.9 0
v 5.96046e-08 1.9 0
v 0.1 1.9 0
v -0.2 1.9 -0.1
v -0.1 1.9 -0.1
v 5.96046e-08 1.9 -0.1
v 0.1 1.9 -0.1
v -0.3 1.9 -0.2
v -0.2 1.9 -0.2
v -0.1 1.9 -0.2
v 0.2 1.9 -0.2
v 0.3 1.9 -0.2
v -0.1 2 0.1
v 0.2 2 0.1
v 5.96046e-08 2 0
v 0.1 2 0
v 5.96046e-08 2 -0.1
v 0.1 2 -0.1
v -0.1 2 -0.2
v 0.2 2 -0.2

# faces
f 3/3/1 2/3/1 1/3/1
f 4/3/1 2/3/1 3/3/1
f 7/3/1 6/3/1 5/3/1
f 8/3/1 6/3/1 7/3/1
f 11/1/1 10/1/1 9/1/1
f 12/1/1 10/1/1 11/1/1
f 15/3/1 14/3/1 13/3/1
f 16/3/1 14/3/1 15/3/1
f 19/1/1 18/1/1 17/1/1
f 20/1/1 18/1/1 19/1/1
f 23/1/1 22/1/1 21/1/1
f 24/1/1 22/1/1 23/1/1
f 25/1/1 22/1/1 24/1/1
f 26/1/1 22/1/1 25/1/1
f 27/3/1 24/3/1 23/3/1
f 28/3/1 24/3/1 27/3/1
f 29/3/1 26/3/1 25/3/1
f 30/3/1 26/3/1 29/3/1
f 31/1/1 28/1/1 27/1/1
f 32/1/1 28/1/1 31/1/1
f 33/1/1 30/1/1 29/1/1
f 34/1/1 30/1/1 33/1/1
f 35/3/1 32/3/1 31/3/1
f 36/3/1 32/3/1 35/3/1
f 37/3/1 34/3/1 33/3/1
f 38/3/1 34/3/1 37/3/1
f 39/1/1 36/1/1 35/1/1
f 40/1/1 38/1/1 37/1/1
f 41/1/1 39/1/1 35/1/1
f 41/1/1 40/1/1 39/1/1
f 42/1/1 38/1/1 40/1/1
f 42/1/1 40/1/1 41/1/1
f 45/1/1 44/1/1 43/1/1
f 46/1/1 44/1/1 45/1/1
f 49/1/1 48/1/1 47/1/1
f 50/1/1 48/1/1 49/1/1
f 51/3/1 50/3/1 49/3/1
f 52/3/1 50/3/1 51/3/1
f 55/3/1 54/3/1 53/3/1
f 56/3/1 54/3/1 55/3/1
f 57/1/1 56/1/1 55/1/1
f 58/1/1 56/1/1 57/1/1
f 61/3/1 60/3/1 59/3/1
f 62/3/1 60/3/1 61/3/1
f 63/1/1 62/1/1 61/1/1
f 64/1/1 62/1/1 63/1/1
f 69/4/1 66/4/1 65/4/1
f 70/4/1 68/4/1 67/4/1
f 71/4/1 69/4/1 65/4/1
f 72/4/1 69/4/1 71/4/1
f 73/4/1 68/4/1 70/4/1
f 74/4/1 68/4/1 73/4/1
f 75/1/1 73/1/1 72/1/1
f 76/1/1 73/1/1 75/1/1
f 79/3/1 78/3/1 77/3/1
f 80/3/1 78/3/1 79/3/1
f 85/3/1 82/3/1 81/3/1
f 85/3/1 84/3/1 83/3/1
f 85/3/1 83/3/1 82/3/1
f 86/3/1 84/3/1 85/3/1
f 89/3/1 88/3/1 87/3/1
f 90/3/1 88/3/1 89/3/1
f 93/3/1 92/3/1 91/3/1
f 94/3/1 92/3/1 93/3/1
f 97/3/1 96/3/1 95/3/1
f 98/3/1 96/3/1 97/3/1
f 99/3/2 100/3/2 101/3/2
f 101/3/2 100/3/2 102/3/2
f 103/3/2 104/3/2 105/3/2
f 105/3/2 104/3/2 106/3/2
f 107/4/2 108/4/2 111/4/2
f 109/4/2 110/4/2 112/4/2
f 107/4/2 111/4/2 113/4/2
f 112/4/2 110/4/2 114/4/2
f 107/4/2 113/4/2 115/4/2
f 115/4/2 113/4/2 116/4/2
f 114/4/2 110/4/2 117/4/2
f 117/4/2 110/4/2 118/4/2
f 119/3/2 120/3/2 121/3/2
f 121/3/2 120/3/2 122/3/2
f 123/3/2 124/3/2 125/3/2
f 125/3/2 124/3/2 126/3/2
f 127/1/2 128/1/2 129/1/2
f 129/1/2 128/1/2 130/1/2
f 131/1/2 132/1/2 133/1/2
f 133/1/2 132/1/2 134/1/2
f 135/1/2 136/1/2 137/1/2
f 137/1/2 136/1/2 138/1/2
f 139/1/2 140/1/2 141/1/2
f 141/1/2 140/1/2 142/1/2
f 139/1/2 141/1/2 143/1/2
f 142/1/2 140/1/2 144/1/2
f 139/1/2 143/1/2 145/1/2
f 143/1/2 144/1/2 145/1/2
f 144/1/2 140/1/2 146/1/2
f 145/1/2 144/1/2 146/1/2
f 139/1/2 145/1/2 147/1/2
f 146/1/2 140/1/2 148/1/2
f 139/1/2 147/1/2 149/1/2
f 147/1/2 148/1/2 149/1/2
f 148/1/2 140/1/2 150/1/2
f 149/1/2 148/1/2 150/1/2
f 151/1/2 152/1/2 153/1/2
f 153/1/2 152/1/2 154/1/2
f 155/3/2 156/3/2 157/3/2
f 157/3/2 156/3/2 158/3/2
f 159/3/2 160/3/2 161/3/2
f 161/3/2 160/3/2 162/3/2
f 163/1/2 164/1/2 165/1/2
f 165/1/2 164/1/2 166/1/2
f 167/3/2 168/3/2 169/3/2
f 169/3/2 168/3/2 170/3/2
f 171/3/2 172/3/2 173/3/2
f 173/3/2 172/3/2 174/3/2
f 177/4/3 176/4/3 175/4/3
f 178/4/3 176/4/3 177/4/3
f 179/4/3 177/4/3 175/4/3
f 179/3/3 178/3/3 177/3/3
f 180/4/3 176/4/3 178/4/3
f 180/3/3 178/3/3 179/3/3
f 181/4/3 179/4/3 175/4/3
f 181/4/3 180/4/3 179/4/3
f 182/4/3 176/4/3 180/4/3
f 182/4/3 180/4/3 181/4/3
f 185/1/3 184/1/3 183/1/3
f 193/1/3 186/1/3 185/1/3
f 197/1/3 188/1/3 187/1/3
f 198/1/3 188/1/3 197/1/3
f 199/3/3 189/3/3 188/3/3
f 199/1/3 188/1/3 198/1/3
f 200/1/3 190/1/3 189/1/3
f 201/3/3 191/3/3 190/3/3
f 201/1/3 190/1/3 200/1/3
f 202/1/3 192/1/3 191/1/3
f 203/1/3 192/1/3 202/1/3
f 208/1/3 196/1/3 195/1/3
f 209/3/3 197/3/3 196/3/3
f 209/1/3 196/1/3 208/1/3
f 210/3/3 189/3/3 199/3/3
f 210/3/3 199/3/3 198/3/3
f 211/1/3 200/1/3 189/1/3
f 211/3/3 189/3/3 210/3/3
f 212/3/3 191/3/3 201/3/3
f 212/3/3 201/3/3 200/3/3
f 213/1/3 202/1/3 191/1/3
f 213/3/3 191/3/3 212/3/3
f 214/3/3 203/3/3 202/3/3
f 214/1/3 202/1/3 213/1/3
f 214/3/3 204/3/3 203/3/3
f 215/1/3 205/1/3 204/1/3
f 215/3/3 204/3/3 214/3/3
f 216/1/3 205/1/3 215/1/3
f 218/1/3 194/1/3 193/1/3
f 219/3/3 207/3/3 206/3/3
f 220/3/3 197/3/3 209/3/3
f 220/3/3 209/3/3 208/3/3
f 221/1/3 198/1/3 197/1/3
f 221/3/3 197/3/3 220/3/3
f 222/1/3 217/1/3 216/1/3
f 223/1/3 217/1/3 222/1/3
f 224/3/3 219/3/3 218/3/3
f 224/3/3 207/3/3 219/3/3
f 225/1/3 208/1/3 207/1/3
f 225/3/3 207/3/3 224/3/3
f 226/3/3 210/3/3 198/3/3
f 226/1/3 198/1/3 221/1/3
f 226/1/3 221/1/3 220/1/3
f 227/1/3 211/1/3 210/1/3
f 227/3/3 210/3/3 226/3/3
f 228/1/3 200/1/3 211/1/3
f 228/1/3 211/1/3 227/1/3
f 228/3/3 212/3/3 200/3/3
f 229/1/3 213/1/3 212/1/3
f 229/3/3 212/3/3 228/3/3
f 229/1/3 214/1/3 213/1/3
f 230/3/3 223/3/3 222/3/3
f 231/3/3 223/3/3 230/3/3
f 233/3/3 220/3/3 208/3/3
f 233/1/3 208/1/3 225/1/3
f 233/1/3 225/1/3 224/1/3
f 234/1/3 227/1/3 226/1/3
f 234/3/3 220/3/3 233/3/3
f 234/1/3 229/1/3 228/1/3
f 234/1/3 226/1/3 220/1/3
f 234/1/3 228/1/3 227/1/3
f 235/1/3 214/1/3 229/1/3
f 235/1/3 229/1/3 234/1/3
f 238/1/3 231/1/3 230/1/3
f 239/1/3 218/1/3 193/1/3
f 239/3/3 224/3/3 218/3/3
f 240/1/3 233/1/3 224/1/3
f 240/3/3 224/3/3 239/3/3
f 240/1/3 234/1/3 233/1/3
f 240/1/3 235/1/3 234/1/3
f 240/1/3 236/1/3 235/1/3
f 241/1/3 236/1/3 240/1/3
f 242/3/3 237/3/3 236/3/3
f 242/1/3 236/1/3 241/1/3
f 243/1/3 238/1/3 237/1/3
f 243/3/3 237/3/3 242/3/3
f 244/3/3 242/3/3 241/3/3
f 244/1/3 241/1/3 240/1/3
f 244/1/3 240/1/3 239/1/3
f 245/1/3 243/1/3 242/1/3
f 245/3/3 242/3/3 244/3/3
f 246/1/3 238/1/3 243/1/3
f 246/1/3 243/1/3 245/1/3
f 246/3/3 232/3/3 231/3/3
f 246/1/3 231/1/3 238/1/3
f 247/3/3 232/3/3 246/3/3
f 248/1/3 239/1/3 193/1/3
f 248/1/3 245/1/3 244/1/3
f 248/1/3 246/1/3 245/1/3
f 248/1/3 244/1/3 239/1/3
f 249/1/3 246/1/3 248/1/3
f 250/1/3 246/1/3 249/1/3
f 251/1/3 246/1/3 250/1/3
f 252/1/3 193/1/3 185/1/3
f 252/1/3 248/1/3 193/1/3
f 253/1/3 248/1/3 252/1/3
f 254/1/3 250/1/3 249/1/3
f 255/1/3 250/1/3 254/1/3
f 256/1/3 185/1/3 183/1/3
f 256/1/3 252/1/3 185/1/3
f 257/1/3 252/1/3 256/1/3
f 258/1/3 256/1/3 183/1/3
f 259/1/3 256/1/3 258/1/3
f 262/3/3 261/3/3 260/3/3
f 263/3/3 261/3/3 262/3/3
f 264/3/3 261/3/3 263/3/3
f 266/3/3 265/3/3 264/3/3
f 266/3/3 264/3/3 263/3/3
f 267/3/3 265/3/3 266/3/3
f 268/3/3 265/3/3 267/3/3
f 270/3/3 269/3/3 268/3/3
f 270/3/3 268/3/3 267/3/3
f 271/3/3 269/3/3 270/3/3
f 272/3/3 269/3/3 271/3/3
f 273/3/3 269/3/3 272/3/3
f 274/3/3 269/3/3 273/3/3
f 280/3/3 276/3/3 275/3/3
f 281/3/3 276/3/3 280/3/3
f 282/3/3 276/3/3 281/3/3
f 284/3/3 278/3/3 277/3/3
f 285/3/3 278/3/3 284/3/3
f 286/3/3 278/3/3 285/3/3
f 287/3/3 280/3/3 279/3/3
f 287/3/3 281/3/3 280/3/3
f 288/3/3 281/3/3 287/3/3
f 289/3/3 285/3/3 284/3/3
f 289/3/3 284/3/3 283/3/3
f 290/3/3 285/3/3 289/3/3
f 293/3/3 292/3/3 291/3/3
f 294/3/3 292/3/3 293/3/3
f 295/3/4 296/3/4 297/3/4
f 297/3/4 296/3/4 298/3/4
f 299/3/4 300/3/4 301/3/4
f 301/3/4 300/3/4 302/3/4
f 302/3/4 300/3/4 303/3/4
f 303/3/4 304/3/4 305/3/4
f 302/3/4 303/3/4 305/3/4
f 305/3/4 304/3/4 306/3/4
f 306/3/4 304/3/4 307/3/4
f 307/3/4 308/3/4 309/3/4
f 306/3/4 307/3/4 309/3/4
f 309/3/4 308/3/4 310/3/4
f 310/3/4 308/3/4 311/3/4
f 311/3/4 308/3/4 312/3/4
f 312/3/4 308/3/4 313/3/4
f 314/3/4 315/3/4 319/3/4
f 319/3/4 315/3/4 320/3/4
f 320/3/4 315/3/4 321/3/4
f 316/3/4 317/3/4 323/3/4
f 323/3/4 317/3/4 324/3/4
f 324/3/4 317/3/4 325/3/4
f 318/3/4 319/3/4 326/3/4
f 319/3/4 320/3/4 326/3/4
f 326/3/4 320/3/4 327/3/4
f 323/3/4 324/3/4 328/3/4
f 322/3/4 323/3/4 328/3/4
f 328/3/4 324/3/4 329/3/4
f 330/1/4 331/1/4 332/1/4
f 332/1/4 333/1/4 340/1/4
f 334/1/4 335/1/4 344/1/4
f 344/1/4 335/1/4 345/1/4
f 335/3/4 336/3/4 346/3/4
f 345/1/4 335/1/4 346/1/4
f 336/1/4 337/1/4 347/1/4
f 337/3/4 338/3/4 348/3/4
f 347/1/4 337/1/4 348/1/4
f 338/1/4 339/1/4 349/1/4
f 349/1/4 339/1/4 350/1/4
f 342/1/4 343/1/4 355/1/4
f 343/3/4 344/3/4 356/3/4
f 355/1/4 343/1/4 356/1/4
f 346/3/4 336/3/4 357/3/4
f 345/3/4 346/3/4 357/3/4
f 336/1/4 347/1/4 358/1/4
f 357/3/4 336/3/4 358/3/4
f 348/3/4 338/3/4 359/3/4
f 347/3/4 348/3/4 359/3/4
f 338/1/4 349/1/4 360/1/4
f 359/3/4 338/3/4 360/3/4
f 349/3/4 350/3/4 361/3/4
f 360/1/4 349/1/4 361/1/4
f 350/3/4 351/3/4 361/3/4
f 351/1/4 352/1/4 362/1/4
f 361/3/4 351/3/4 362/3/4
f 362/1/4 352/1/4 363/1/4
f 340/1/4 341/1/4 365/1/4
f 353/3/4 354/3/4 366/3/4
f 356/3/4 344/3/4 367/3/4
f 355/3/4 356/3/4 367/3/4
f 344/1/4 345/1/4 368/1/4
f 367/3/4 344/3/4 368/3/4
f 363/1/4 364/1/4 369/1/4
f 369/1/4 364/1/4 370/1/4
f 365/3/4 366/3/4 371/3/4
f 366/3/4 354/3/4 371/3/4
f 354/1/4 355/1/4 372/1/4
f 371/3/4 354/3/4 372/3/4
f 345/3/4 357/3/4 373/3/4
f 368/1/4 345/1/4 373/1/4
f 367/1/4 368/1/4 373/1/4
f 357/1/4 358/1/4 374/1/4
f 373/3/4 357/3/4 374/3/4
f 358/1/4 347/1/4 375/1/4
f 374/1/4 358/1/4 375/1/4
f 347/3/4 359/3/4 375/3/4
f 359/1/4 360/1/4 376/1/4
f 375/3/4 359/3/4 376/3/4
f 360/1/4 361/1/4 376/1/4
f 369/3/4 370/3/4 377/3/4
f 377/3/4 370/3/4 378/3/4
f 355/3/4 367/3/4 380/3/4
f 372/1/4 355/1/4 380/1/4
f 371/1/4 372/1/4 380/1/4
f 373/1/4 374/1/4 381/1/4
f 380/3/4 367/3/4 381/3/4
f 375/1/4 376/1/4 381/1/4
f 367/1/4 373/1/4 381/1/4
f 374/1/4 375/1/4 381/1/4
f 376/1/4 361/1/4 382/1/4
f 381/1/4 376/1/4 382/1/4
f 377/1/4 378/1/4 385/1/4
f 340/1/4 365/1/4 386/1/4
f 365/3/4 371/3/4 386/3/4
f 371/1/4 380/1/4 387/1/4
f 386/3/4 371/3/4 387/3/4
f 380/1/4 381/1/4 387/1/4
f 381/1/4 382/1/4 387/1/4
f 382/1/4 383/1/4 387/1/4
f 387/1/4 383/1/4 388/1/4
f 383/3/4 384/3/4 389/3/4
f 388/1/4 383/1/4 389/1/4
f 384/1/4 385/1/4 390/1/4
f 389/3/4 384/3/4 390/3/4
f 388/3/4 389/3/4 391/3/4
f 387/1/4 388/1/4 391/1/4
f 386/1/4 387/1/4 391/1/4
f 389/1/4 390/1/4 392/1/4
f 391/3/4 389/3/4 392/3/4
f 390/1/4 385/1/4 393/1/4
f 392/1/4 390/1/4 393/1/4
f 378/3/4 379/3/4 393/3/4
f 385/1/4 378/1/4 393/1/4
f 393/3/4 379/3/4 394/3/4
f 340/1/4 386/1/4 395/1/4
f 391/1/4 392/1/4 395/1/4
f 392/1/4 393/1/4 395/1/4
f 386/1/4 391/1/4 395/1/4
f 395/1/4 393/1/4 396/1/4
f 396/1/4 393/1/4 397/1/4
f 397/1/4 393/1/4 398/1/4
f 332/1/4 340/1/4 399/1/4
f 340/1/4 395/1/4 399/1/4
f 399/1/4 395/1/4 400/1/4
f 396/1/4 397/1/4 401/1/4
f 401/1/4 397/1/4 402/1/4
f 330/1/4 332/1/4 403/1/4
f 332/1/4 399/1/4 403/1/4
f 403/1/4 399/1/4 404/1/4
f 330/1/4 403/1/4 405/1/4
f 405/1/4 403/1/4 406/1/4
f 407/4/4 408/4/4 409/4/4
f 409/4/4 408/4/4 410/4/4
f 407/4/4 409/4/4 411/4/4
f 409/3/4 410/3/4 411/3/4
f 410/4/4 408/4/4 412/4/4
f 411/3/4 410/3/4 412/3/4
f 407/4/4 411/4/4 413/4/4
f 411/4/4 412/4/4 413/4/4
f 412/4/4 408/4/4 414/4/4
f 413/4/4 412/4/4 414/4/4
f 417/1/5 416/1/5 415/1/5
f 418/1/5 416/1/5 417/1/5
f 421/3/5 420/3/5 419/3/5
f 422/3/5 420/3/5 421/3/5
f 427/3/5 426/3/5 425/3/5
f 428/3/5 426/3/5 427/3/5
f 429/1/5 424/1/5 423/1/5
f 430/1/5 424/1/5 429/1/5
f 435/3/5 434/3/5 433/3/5
f 436/3/5 434/3/5 435/3/5
f 437/1/5 432/1/5 431/1/5
f 438/1/5 432/1/5 437/1/5
f 443/3/5 442/3/5 441/3/5
f 444/3/5 442/3/5 443/3/5
f 445/1/5 440/1/5 439/1/5
f 446/1/5 440/1/5 445/1/5
f 449/3/5 448/3/5 447/3/5
f 450/3/5 448/3/5 449/3/5
f 453/3/5 452/3/5 451/3/5
f 454/3/5 452/3/5 453/3/5
f 457/3/5 456/3/5 455/3/5
f 458/3/5 456/3/5 457/3/5
f 461/3/5 460/3/5 459/3/5
f 462/3/5 460/3/5 461/3/5
f 465/4/5 464/4/5 463/4/5
f 466/4/5 464/4/5 465/4/5
f 469/4/5 468/4/5 467/4/5
f 470/4/5 468/4/5 469/4/5
f 471/1/6 472/1/6 475/1/6
f 475/1/6 472/1/6 476/1/6
f 473/1/6 474/1/6 477/1/6
f 477/1/6 474/1/6 478/1/6
f 479/1/6 480/1/6 483/1/6
f 483/1/6 480/1/6 484/1/6
f 481/1/6 482/1/6 485/1/6
f 485/1/6 482/1/6 486/1/6
f 487/1/6 488/1/6 491/1/6
f 491/1/6 488/1/6 492/1/6
f 489/1/6 490/1/6 493/1/6
f 493/1/6 490/1/6 494/1/6
f 495/3/6 496/3/6 497/3/6
f 497/3/6 496/3/6 498/3/6
f 499/3/6 500/3/6 501/3/6
f 501/3/6 500/3/6 502/3/6
f 503/3/6 504/3/6 505/3/6
f 505/3/6 504/3/6 506/3/6
f 507/3/6 508/3/6 511/3/6
f 511/3/6 508/3/6 512/3/6
f 509/3/6 510/3/6 513/3/6
f 513/3/6 510/3/6 514/3/6
f 515/3/6 516/3/6 519/3/6
f 519/3/6 516/3/6 520/3/6
f 517/3/6 518/3/6 521/3/6
f 521/3/6 518/3/6 522/3/6
f 523/1/6 524/1/6 525/1/6
f 525/1/6 524/1/6 526/1/6
f 527/1/6 528/1/6 529/1/6
f 529/1/6 528/1/6 530/1/6
f 531/4/6 532/4/6 534/4/6
f 534/4/6 532/4/6 535/4/6
f 535/4/6 532/4/6 536/4/6
f 536/4/6 532/4/6 537/4/6
f 533/1/6 534/1/6 538/1/6
f 538/1/6 534/1/6 539/1/6
f 541/4/6 542/4/6 543/4/6
f 540/4/6 541/4/6 543/4/6
f 539/4/6 540/4/6 543/4/6
f 543/4/6 542/4/6 544/4/6
f 545/1/6 546/1/6 550/1/6
f 546/3/6 547/3/6 550/3/6
f 550/3/6 547/3/6 551/3/6
f 545/1/6 550/1/6 554/1/6
f 550/1/6 551/1/6 554/1/6
f 554/1/6 551/1/6 555/1/6
f 552/2/6 553/2/6 556/2/6
f 556/2/6 553/2/6 557/2/6
f 545/1/6 554/1/6 558/1/6
f 554/3/6 555/3/6 559/3/6
f 558/1/6 554/1/6 559/1/6
f 559/3/6 555/3/6 560/3/6
f 548/1/6 549/1/6 561/1/6
f 561/1/6 549/1/6 562/1/6
f 563/3/6 564/3/6 565/3/6
f 565/3/6 564/3/6 566/3/6
f 563/3/6 565/3/6 567/3/6
f 566/3/6 564/3/6 568/3/6
f 563/3/6 567/3/6 569/3/6
f 567/3/6 568/3/6 569/3/6
f 568/3/6 564/3/6 570/3/6
f 569/3/6 568/3/6 570/3/6
